<svg xmlns="http://www.w3.org/2000/svg" width="512" height="512" viewBox="0 0 512 512">
  <mask id="koli-k-cut-b">
    <circle cx="256" cy="256" r="256" fill="#ffffff"></circle>
    <path d="M214.71 535.85Q209.74 537.27 204.07 535.85Q198.4 534.43 193.08 531.24Q187.77 528.05 183.34 523.62Q178.9 519.19 176.07 514.93Q172.52 509.97 170.93 503.95Q169.33 497.92 167.92 491.89Q164.37 475.59 162.78 459.11Q161.18 442.62 159.76 425.96Q158.35 408.6 157.28 391.4Q156.22 374.21 155.16 356.84Q144.88 352.24 136.72 343.02Q133.89 339.48 132.65 334.87Q131.41 330.26 132.12 325.65Q133.89 313.6 139.74 302.43Q145.59 291.27 151.97 280.99Q149.84 218.25 148.42 156.57Q147 94.9 145.94 32.16Q145.94 29.68 145.59 22.41Q145.23 15.14 145.05 6.81Q144.88 -1.52 144.7 -8.96Q144.52 -16.4 144.52 -18.88Q144.88 -19.95 145.76 -21.19Q146.65 -22.43 148.07 -23.14Q154.09 -25.27 161.18 -22.61Q168.27 -19.95 173.59 -16.05Q176.07 -13.92 178.2 -11.44Q180.32 -8.96 181.74 -5.77Q182.09 -4.71 182.27 -2.23Q182.45 0.26 182.45 3.09Q182.45 5.93 182.45 8.41Q182.45 10.89 182.45 11.95Q184.22 65.83 185.28 119Q186.35 172.17 187.77 226.05Q197.69 211.52 207.44 197.51Q217.19 183.51 227.11 169.33Q254.4 129.63 279.22 89.23Q304.03 48.82 329.2 8.05Q329.91 6.64 331.85 3.45Q333.8 0.26 336.11 -3.47Q338.41 -7.19 340.54 -10.38Q342.67 -13.57 343.73 -14.63Q347.98 -18.53 354.72 -16.76Q360.03 -15.34 365.17 -12.68Q370.31 -10.02 374.21 -5.77Q375.99 -4 378.29 0.08Q380.59 4.16 379.53 6.99Q378.82 8.41 377.76 12.48Q376.69 16.56 375.28 21.17Q373.86 25.78 372.44 29.85Q371.02 33.93 370.31 35.35Q369.25 37.47 365.71 38.01Q362.16 38.54 359.68 38.18Q335.58 77.53 311.47 115.99Q287.37 154.45 261.85 192.37Q243.77 218.96 225.52 245.19Q207.26 271.42 190.25 299.07L191.31 323.52Q219.31 313.25 245.9 300.13Q272.48 287.02 299.07 273.19Q302.26 271.42 306.51 271.6Q310.76 271.77 315.02 273.37Q319.27 274.96 323.17 277.62Q327.07 280.28 329.91 283.12Q332.03 285.24 333.8 288.26Q335.58 291.27 334.87 294.46Q334.87 295.52 333.27 296.94Q331.68 298.36 330.61 299.07Q313.6 308.28 296.59 316.61Q279.57 324.94 262.2 333.1Q245.19 340.54 228.17 347.63Q211.16 354.72 193.08 358.62Q194.15 382.01 195.56 404.7Q196.98 427.38 199.11 450.42Q200.17 461.76 201.41 473.11Q202.65 484.45 204.43 495.79Q206.2 506.78 209.74 516.71Q212.22 518.83 214.53 521.67Q216.83 524.5 217.9 527.34Q218.96 530.18 218.43 532.48Q217.9 534.78 214.71 535.85Z" fill="#000000"></path>
  </mask>
  <circle cx="256" cy="256" r="256" fill="#141310" mask="url(#koli-k-cut-b)"></circle>
</svg>